<svg xmlns="http://www.w3.org/2000/svg" style="display: none;">
    <symbol id="icon-google-podcast-mini-logo-white" viewBox="0 0 24 24">
        <svg width="24" height="24" viewBox="0 0 24 24" fill="currentColor" xmlns="http://www.w3.org/2000/svg">
            <g clip-path="url(#clip0_301_120)">
                <path d="M10.5 7.63647V11.2733V12.727V16.3638H13.5001V12.727V11.2733V7.63647H10.5Z" fill="currentColor"/>
                <path d="M1.50002 12.682C2.32845 12.682 3.00003 12.0104 3.00003 11.182C3.00003 10.3536 2.32845 9.68201 1.50002 9.68201C0.671581 9.68201 0 10.3536 0 11.182C0 12.0104 0.671581 12.682 1.50002 12.682Z" fill="currentColor"/>
                <path d="M1.50002 14.318C2.32845 14.318 3.00003 13.6464 3.00003 12.818C3.00003 11.9896 2.32845 11.318 1.50002 11.318C0.671581 11.318 0 11.9896 0 12.818C0 13.6464 0.671581 14.318 1.50002 14.318Z" fill="currentColor"/>
                <path d="M3.00003 11.182H0V12.8184H3.00003V11.182Z" fill="currentColor"/>
                <path d="M22.5 14.318C23.3285 14.318 24 13.6464 24 12.818C24 11.9896 23.3285 11.318 22.5 11.318C21.6716 11.318 21 11.9896 21 12.818C21 13.6464 21.6716 14.318 22.5 14.318Z" fill="currentColor"/>
                <path d="M22.5 12.682C23.3285 12.682 24 12.0104 24 11.182C24 10.3536 23.3285 9.68201 22.5 9.68201C21.6716 9.68201 21 10.3536 21 11.182C21 12.0104 21.6716 12.682 22.5 12.682Z" fill="currentColor"/>
                <path d="M21 12.8184H24V11.182H21V12.8184Z" fill="currentColor"/>
                <path d="M6.68156 17.5911C7.50997 17.5911 8.18156 16.9195 8.18156 16.0911C8.18156 15.2626 7.50997 14.5911 6.68156 14.5911C5.85312 14.5911 5.18155 15.2626 5.18155 16.0911C5.18155 16.9195 5.85312 17.5911 6.68156 17.5911Z" fill="currentColor"/>
                <path d="M6.68156 19.2276C7.50997 19.2276 8.18156 18.5561 8.18156 17.7276C8.18156 16.8992 7.50997 16.2275 6.68156 16.2275C5.85312 16.2275 5.18155 16.8992 5.18155 17.7276C5.18155 18.5561 5.85312 19.2276 6.68156 19.2276Z" fill="currentColor"/>
                <path d="M8.18156 16.0911H5.18155V17.7274H8.18156V16.0911Z" fill="currentColor"/>
                <path d="M6.68156 7.77245C7.50997 7.77245 8.18156 7.10088 8.18156 6.27247C8.18156 5.44404 7.50997 4.77246 6.68156 4.77246C5.85312 4.77246 5.18155 5.44404 5.18155 6.27247C5.18155 7.10088 5.85312 7.77245 6.68156 7.77245Z" fill="currentColor"/>
                <path d="M6.68156 13.0905C7.50997 13.0905 8.18156 12.4189 8.18156 11.5905C8.18156 10.762 7.50997 10.0905 6.68156 10.0905C5.85312 10.0905 5.18155 10.762 5.18155 11.5905C5.18155 12.4189 5.85312 13.0905 6.68156 13.0905Z" fill="currentColor"/>
                <path d="M8.18156 6.27246H5.18155V11.6248H8.18156V6.27246Z" fill="currentColor"/>
                <path d="M17.3185 9.40957C18.1469 9.40957 18.8185 8.73799 18.8185 7.90956C18.8185 7.08112 18.1469 6.40955 17.3185 6.40955C16.49 6.40955 15.8185 7.08112 15.8185 7.90956C15.8185 8.73799 16.49 9.40957 17.3185 9.40957Z" fill="currentColor"/>
                <path d="M17.3185 7.77245C18.1469 7.77245 18.8185 7.10088 18.8185 6.27247C18.8185 5.44404 18.1469 4.77246 17.3185 4.77246C16.49 4.77246 15.8185 5.44404 15.8185 6.27247C15.8185 7.10088 16.49 7.77245 17.3185 7.77245Z" fill="currentColor"/>
                <path d="M15.8179 7.90882H18.818V6.27246H15.8179V7.90882Z" fill="currentColor"/>
                <path d="M12 4.63649C12.8285 4.63649 13.5001 3.96492 13.5001 3.13648C13.5001 2.30805 12.8285 1.63647 12 1.63647C11.1716 1.63647 10.5 2.30805 10.5 3.13648C10.5 3.96492 11.1716 4.63649 12 4.63649Z" fill="currentColor"/>
                <path d="M12 3.00001C12.8285 3.00001 13.5001 2.32844 13.5001 1.50001C13.5001 0.671577 12.8285 0 12 0C11.1716 0 10.5 0.671577 10.5 1.50001C10.5 2.32844 11.1716 3.00001 12 3.00001Z" fill="currentColor"/>
                <path d="M10.5 3.13638H13.5001V1.5H10.5V3.13638Z" fill="currentColor"/>
                <path d="M12 24C12.8285 24 13.5001 23.3284 13.5001 22.5C13.5001 21.6716 12.8285 21 12 21C11.1716 21 10.5 21.6716 10.5 22.5C10.5 23.3284 11.1716 24 12 24Z" fill="currentColor"/>
                <path d="M12 22.364C12.8285 22.364 13.5001 21.6925 13.5001 20.864C13.5001 20.0356 12.8285 19.364 12 19.364C11.1716 19.364 10.5 20.0356 10.5 20.864C10.5 21.6925 11.1716 22.364 12 22.364Z" fill="currentColor"/>
                <path d="M10.5 22.5004H13.5001V20.864H10.5V22.5004Z" fill="currentColor"/>
                <path d="M17.3185 19.2276C18.1469 19.2276 18.8185 18.5561 18.8185 17.7276C18.8185 16.8992 18.1469 16.2275 17.3185 16.2275C16.49 16.2275 15.8185 16.8992 15.8185 17.7276C15.8185 18.5561 16.49 19.2276 17.3185 19.2276Z" fill="currentColor"/>
                <path d="M17.3185 13.9096C18.1469 13.9096 18.8185 13.238 18.8185 12.4096C18.8185 11.5811 18.1469 10.9095 17.3185 10.9095C16.49 10.9095 15.8185 11.5811 15.8185 12.4096C15.8185 13.238 16.49 13.9096 17.3185 13.9096Z" fill="currentColor"/>
                <path d="M15.8179 17.7272H18.818V12.4089H15.8179V17.7272Z" fill="currentColor"/>
                <path d="M12 9.13652C12.8285 9.13652 13.5001 8.46488 13.5001 7.63651C13.5001 6.80808 12.8285 6.13647 12 6.13647C11.1716 6.13647 10.5 6.80808 10.5 7.63651C10.5 8.46488 11.1716 9.13652 12 9.13652Z" fill="currentColor"/>
                <path d="M12 17.864C12.8285 17.864 13.5001 17.1925 13.5001 16.364C13.5001 15.5356 12.8285 14.864 12 14.864C11.1716 14.864 10.5 15.5356 10.5 16.364C10.5 17.1925 11.1716 17.864 12 17.864Z" fill="currentColor"/>
            </g>
            <defs>
                <clipPath id="clip0_301_120">
                    <rect width="24" height="24" fill="currentColor"/>
                </clipPath>
            </defs>
        </svg>
    </symbol>
    <symbol id="icon-spotify-mini-logo-white" viewBox="0 0 24 24">
        <svg width="24" height="24" viewBox="0 0 24 24" fill="currentColor" xmlns="http://www.w3.org/2000/svg">
            <g clip-path="url(#clip0_301_149)">
                <path d="M12 0C9.62662 0 7.30654 0.70378 5.33313 2.02233C3.35979 3.34094 1.82173 5.21511 0.913423 7.40778C0.00518715 9.60052 -0.232448 12.0133 0.230606 14.3411C0.69359 16.6689 1.83646 18.807 3.51471 20.4853C5.19295 22.1635 7.33118 23.3064 9.65895 23.7694C11.9867 24.2324 14.3995 23.9948 16.5922 23.0865C18.7849 22.1783 20.6591 20.6402 21.9777 18.6668C23.2962 16.6935 24 14.3734 24 12C24 8.81738 22.7357 5.76516 20.4853 3.51474C18.2348 1.26425 15.1826 0 12 0ZM17.5068 17.3057C17.4557 17.3905 17.3883 17.4643 17.3085 17.5228C17.2286 17.5813 17.138 17.6234 17.0417 17.6465C16.9455 17.6697 16.8456 17.6735 16.7479 17.6577C16.6501 17.6419 16.5565 17.6069 16.4725 17.5547C13.6569 15.8308 10.1133 15.4477 5.93776 16.3959C5.84275 16.4185 5.74425 16.4221 5.64784 16.4064C5.5515 16.3906 5.45914 16.3559 5.37635 16.3043C5.29348 16.2526 5.22171 16.185 5.16517 16.1054C5.10862 16.0257 5.06855 15.9357 5.04712 15.8404C5.02429 15.7448 5.02066 15.6457 5.03623 15.5486C5.05186 15.4516 5.08642 15.3586 5.13801 15.275C5.1896 15.1914 5.25725 15.1188 5.3369 15.0613C5.41663 15.0039 5.50689 14.9627 5.60253 14.9401C10.1708 13.8962 14.0974 14.3464 17.2578 16.2809C17.4264 16.384 17.5473 16.5498 17.594 16.7418C17.6407 16.9339 17.6093 17.1367 17.5068 17.3057ZM18.9721 14.0399C18.8383 14.2458 18.6304 14.3923 18.3916 14.4494C18.1528 14.5064 17.9012 14.4695 17.6888 14.3464C14.0474 12.3151 9.74858 11.8122 5.73664 12.9481C5.61182 13.0177 5.47296 13.0585 5.33034 13.0674C5.18765 13.0764 5.04481 13.0533 4.91224 12.9998C4.77967 12.9464 4.66079 12.864 4.56424 12.7586C4.46769 12.6532 4.39592 12.5275 4.35425 12.3909C4.31257 12.2541 4.30203 12.1098 4.32339 11.9685C4.34475 11.8271 4.39746 11.6924 4.47767 11.5741C4.55788 11.4558 4.66358 11.357 4.78694 11.2848C4.91036 11.2127 5.04831 11.1691 5.19072 11.1572C7.43004 10.5126 9.7756 10.322 12.0896 10.5967C14.4036 10.8713 16.6394 11.6057 18.6656 12.7566C18.8715 12.8904 19.018 13.0982 19.0751 13.337C19.1321 13.5759 19.0952 13.8275 18.9721 14.0399ZM19.0966 10.6401C15.2658 8.34155 8.85878 8.13085 5.16203 9.25138C4.87755 9.33779 4.57038 9.30758 4.30817 9.16744C4.04596 9.02737 3.85015 8.78886 3.76379 8.50436C3.67743 8.21994 3.70759 7.91276 3.8477 7.65052C3.98774 7.38834 4.22628 7.19251 4.51076 7.10617C8.75343 5.82283 15.7925 6.07184 20.2459 8.70548C20.4748 8.86935 20.6337 9.11336 20.6909 9.38905C20.7481 9.66468 20.6994 9.95178 20.5546 10.1933C20.4097 10.4347 20.1793 10.6127 19.9092 10.6919C19.639 10.7712 19.3489 10.7458 19.0966 10.6209V10.6401Z" fill="currentColor"/>
            </g>
            <defs>
                <clipPath id="clip0_301_149">
                    <rect width="24" height="24" fill="currentColor"/>
                </clipPath>
            </defs>
        </svg>
    </symbol>
    <symbol id="icon-youtube-mini-logo-white" viewBox="0 0 24 24">
        <svg width="24" height="24" viewBox="0 0 24 24" fill="currentColor" xmlns="http://www.w3.org/2000/svg">
            <path fill-rule="evenodd" clip-rule="evenodd" d="M4.45835 4.73508C2.97296 4.80867 1.77978 5.97175 1.68338 7.45583C1.59102 8.87769 1.5 10.6272 1.5 12C1.5 13.3728 1.59102 15.1223 1.68338 16.5442C1.77978 18.0283 2.97296 19.1913 4.45835 19.2649C6.60929 19.3715 9.6836 19.5 12 19.5C14.3164 19.5 17.3907 19.3715 19.5417 19.2649C21.027 19.1913 22.2202 18.0283 22.3166 16.5442C22.409 15.1223 22.5 13.3728 22.5 12C22.5 10.6272 22.409 8.8777 22.3166 7.45583C22.2202 5.97175 21.027 4.80867 19.5417 4.73508C17.3907 4.62852 14.3164 4.5 12 4.5C9.6836 4.5 6.60929 4.62852 4.45835 4.73508ZM15.75 12L9.75 15V9L15.75 12Z" fill="currentColor"/>
        </svg>
    </symbol>
    <symbol id="icon-tiktok-mini-logo-original" viewBox="0 0 20 20">
        <svg width="20" height="20" viewBox="0 0 20 20" fill="none" xmlns="http://www.w3.org/2000/svg">
            <path d="M5.28185 12.3705C5.37952 11.5618 5.71119 11.1091 6.3362 10.6449C7.23049 10.0163 8.34758 10.3719 8.34758 10.3719V8.26241C8.61916 8.25546 8.89084 8.27156 9.15946 8.31051V11.0252C9.15946 11.0252 8.04271 10.6696 7.14842 11.2986C6.52374 11.7624 6.19139 12.2155 6.09406 13.0242C6.09101 13.4633 6.17342 14.0373 6.55291 14.5336C6.45908 14.4855 6.36345 14.4307 6.266 14.3692C5.43005 13.8078 5.27778 12.9657 5.28185 12.3705ZM13.772 4.36199C13.1568 3.68786 12.9241 3.00724 12.84 2.52911H13.6139C13.6139 2.52911 13.4596 3.78277 14.5842 5.01563L14.5998 5.03221C14.2967 4.84156 14.0188 4.61652 13.772 4.36199ZM17.5 6.27319V8.93328C17.5 8.93328 16.5125 8.8946 15.7817 8.70868C14.7612 8.44865 14.1053 8.04983 14.1053 8.04983C14.1053 8.04983 13.6523 7.76543 13.6156 7.7456V13.2387C13.6156 13.5445 13.5319 14.3084 13.2765 14.9454C12.9431 15.7788 12.4287 16.3259 12.3341 16.4377C12.3341 16.4377 11.7084 17.1771 10.6045 17.6751C9.60949 18.1243 8.73589 18.1129 8.47476 18.1243C8.47476 18.1243 6.96461 18.1841 5.60572 17.301C5.31186 17.1063 5.03757 16.8859 4.78638 16.6425L4.79316 16.6473C6.15239 17.5305 7.6622 17.4706 7.6622 17.4706C7.92367 17.4593 8.79727 17.4706 9.79194 17.0214C10.8948 16.5235 11.5215 15.784 11.5215 15.784C11.6151 15.6722 12.1319 15.1252 12.4639 14.2915C12.7186 13.6547 12.8031 12.8906 12.8031 12.5847V7.09228C12.8397 7.11243 13.2924 7.39684 13.2924 7.39684C13.2924 7.39684 13.9487 7.79598 14.9691 8.05568C15.7003 8.2416 16.6875 8.28028 16.6875 8.28028V6.19583C17.0252 6.27157 17.3132 6.29204 17.5 6.27319Z" fill="#EE1D52"/>
            <path d="M16.6878 6.19583V8.27963C16.6878 8.27963 15.7006 8.24095 14.9694 8.05503C13.949 7.79501 13.2928 7.39619 13.2928 7.39619C13.2928 7.39619 12.84 7.11178 12.8034 7.09163V12.5854C12.8034 12.8912 12.7196 13.6554 12.4643 14.2921C12.1309 15.1258 11.6164 15.6729 11.5218 15.7847C11.5218 15.7847 10.8958 16.5241 9.79226 17.0221C8.79759 17.4713 7.92399 17.4599 7.66252 17.4713C7.66252 17.4713 6.15271 17.5311 4.79348 16.648L4.78669 16.6431C4.64319 16.5042 4.50811 16.3574 4.38211 16.2037C3.94836 15.6748 3.68249 15.0495 3.61568 14.871C3.61556 14.8703 3.61556 14.8695 3.61568 14.8687C3.50817 14.5587 3.28231 13.814 3.31317 13.0928C3.36777 11.8202 3.81542 11.0392 3.93378 10.8435C4.24724 10.3099 4.65493 9.83251 5.13871 9.43253C5.56562 9.08738 6.0495 8.81277 6.57052 8.61994C7.13376 8.39354 7.73688 8.2722 8.34756 8.26241V10.3719C8.34756 10.3719 7.23047 10.0176 6.33652 10.6449C5.7115 11.1091 5.37983 11.5618 5.28216 12.3705C5.27809 12.9657 5.43036 13.8078 6.26564 14.3695C6.36308 14.4312 6.45872 14.4861 6.55254 14.534C6.69847 14.7236 6.87608 14.8889 7.0782 15.0231C7.89414 15.5396 8.57783 15.5757 9.45211 15.2403C10.0351 15.016 10.4739 14.5106 10.6774 13.9505C10.8052 13.6008 10.8035 13.2488 10.8035 12.8847V2.52911H12.8383C12.9224 3.00724 13.1551 3.68786 13.7703 4.36199C14.017 4.61652 14.295 4.84156 14.5981 5.03221C14.6876 5.12484 15.1454 5.58282 15.7331 5.86397C16.037 6.0093 16.3574 6.12065 16.6878 6.19583Z" fill="black"/>
            <path d="M2.80591 14.2231V14.2248L2.8564 14.3616C2.8506 14.3457 2.83184 14.2973 2.80591 14.2231Z" fill="#69C9D0"/>
            <path d="M6.57051 8.61984C6.0495 8.81266 5.56561 9.08728 5.1387 9.43243C4.65477 9.83331 4.24718 10.3117 3.93411 10.8463C3.81576 11.0414 3.3681 11.8231 3.3135 13.0956C3.28264 13.8168 3.5085 14.5615 3.61601 14.8716C3.61589 14.8723 3.61589 14.8731 3.61601 14.8738C3.68383 15.0507 3.94869 15.676 4.38244 16.2065C4.50844 16.3602 4.64352 16.507 4.78702 16.6459C4.32723 16.3411 3.91716 15.9727 3.57023 15.5525C3.14021 15.0282 2.87501 14.4094 2.80583 14.2267C2.80574 14.2254 2.80574 14.2241 2.80583 14.2228V14.2205C2.69798 13.9108 2.47144 13.1658 2.50298 12.4436C2.55758 11.171 3.00523 10.39 3.12359 10.1943C3.43657 9.65964 3.84417 9.18122 4.32818 8.78041C4.755 8.43514 5.23891 8.16051 5.75999 7.96782C6.08501 7.83857 6.42361 7.74322 6.76992 7.68341C7.29183 7.5961 7.82487 7.58853 8.34925 7.66099V8.2623C7.738 8.27189 7.13427 8.39324 6.57051 8.61984Z" fill="#69C9D0"/>
            <path d="M12.8399 2.52897H10.8051V12.8849C10.8051 13.2489 10.8051 13.6 10.6789 13.9507C10.4734 14.5104 10.0363 15.0158 9.45365 15.2401C8.57904 15.5768 7.89535 15.5395 7.07974 15.023C6.87727 14.8894 6.69921 14.7246 6.55273 14.5354C7.24761 14.8907 7.86958 14.8845 8.64008 14.5881C9.22237 14.3638 9.66018 13.8584 9.86502 13.2984C9.99321 12.9486 9.99151 12.5966 9.99151 12.2329V1.875H12.8012C12.8012 1.875 12.7697 2.13243 12.8399 2.52897ZM16.6876 5.6194V6.19569C16.3578 6.12039 16.038 6.00904 15.7347 5.86383C15.147 5.58267 14.6891 5.1247 14.5996 5.03206C14.7035 5.09744 14.8113 5.15691 14.9225 5.21018C15.637 5.55212 16.3407 5.65418 16.6876 5.6194Z" fill="#69C9D0"/>
        </svg>
    </symbol>
    <symbol id="icon-twitter-mini-logo-original" viewBox="0 0 20 20">
        <svg width="20" height="20" viewBox="0 0 20 20" fill="none" xmlns="http://www.w3.org/2000/svg">
            <path d="M7.36796 17.5C5.34609 17.5 3.46136 16.9119 1.875 15.8973C3.22187 15.9844 5.59879 15.7757 7.07724 14.3655C4.85317 14.2634 3.85016 12.5577 3.71934 11.8287C3.90831 11.9016 4.80956 11.9891 5.31834 11.785C2.75994 11.1435 2.36745 8.89833 2.45467 8.21311C2.93437 8.54843 3.74841 8.66506 4.06821 8.6359C1.68425 6.93015 2.54189 4.36422 2.96345 3.81022C4.67426 6.18042 7.23825 7.51161 10.4102 7.58565C10.3504 7.32335 10.3188 7.05026 10.3188 6.76978C10.3188 4.75682 11.9459 3.125 13.9529 3.125C15.0016 3.125 15.9465 3.57047 16.6098 4.28302C17.3106 4.11882 18.3652 3.73442 18.8808 3.402C18.6209 4.33507 17.8118 5.11343 17.3224 5.40192C17.3185 5.39207 17.3265 5.41174 17.3224 5.40192C17.7523 5.3369 18.9155 5.11336 19.375 4.8016C19.1478 5.32578 18.29 6.19733 17.5861 6.68526C17.717 12.4613 13.2978 17.5 7.36796 17.5Z" fill="#47ACDF"/>
        </svg>
    </symbol>
    <symbol id="icon-instagram-mini-logo-original" viewBox="0 0 20 20">
        <svg width="20" height="20" viewBox="0 0 20 20" fill="none" xmlns="http://www.w3.org/2000/svg">
            <rect x="1.25" y="1.25" width="17.5" height="17.5" rx="8.75" fill="url(#paint0_radial_301_7807)"/>
            <rect x="1.25" y="1.25" width="17.5" height="17.5" rx="8.75" fill="url(#paint1_radial_301_7807)"/>
            <rect x="1.25" y="1.25" width="17.5" height="17.5" rx="8.75" fill="url(#paint2_radial_301_7807)"/>
            <path d="M13.5 7.25C13.5 7.66421 13.1642 8 12.75 8C12.3358 8 12 7.66421 12 7.25C12 6.83579 12.3358 6.5 12.75 6.5C13.1642 6.5 13.5 6.83579 13.5 7.25Z" fill="white"/>
            <path fill-rule="evenodd" clip-rule="evenodd" d="M10 12.5C11.3807 12.5 12.5 11.3807 12.5 10C12.5 8.61929 11.3807 7.5 10 7.5C8.61929 7.5 7.5 8.61929 7.5 10C7.5 11.3807 8.61929 12.5 10 12.5ZM10 11.5C10.8284 11.5 11.5 10.8284 11.5 10C11.5 9.17157 10.8284 8.5 10 8.5C9.17157 8.5 8.5 9.17157 8.5 10C8.5 10.8284 9.17157 11.5 10 11.5Z" fill="white"/>
            <path fill-rule="evenodd" clip-rule="evenodd" d="M5 9.8C5 8.11984 5 7.27976 5.32698 6.63803C5.6146 6.07354 6.07354 5.6146 6.63803 5.32698C7.27976 5 8.11984 5 9.8 5H10.2C11.8802 5 12.7202 5 13.362 5.32698C13.9265 5.6146 14.3854 6.07354 14.673 6.63803C15 7.27976 15 8.11984 15 9.8V10.2C15 11.8802 15 12.7202 14.673 13.362C14.3854 13.9265 13.9265 14.3854 13.362 14.673C12.7202 15 11.8802 15 10.2 15H9.8C8.11984 15 7.27976 15 6.63803 14.673C6.07354 14.3854 5.6146 13.9265 5.32698 13.362C5 12.7202 5 11.8802 5 10.2V9.8ZM9.8 6H10.2C11.0566 6 11.6389 6.00078 12.089 6.03755C12.5274 6.07337 12.7516 6.1383 12.908 6.21799C13.2843 6.40973 13.5903 6.71569 13.782 7.09202C13.8617 7.24842 13.9266 7.47262 13.9624 7.91104C13.9992 8.36113 14 8.94342 14 9.8V10.2C14 11.0566 13.9992 11.6389 13.9624 12.089C13.9266 12.5274 13.8617 12.7516 13.782 12.908C13.5903 13.2843 13.2843 13.5903 12.908 13.782C12.7516 13.8617 12.5274 13.9266 12.089 13.9624C11.6389 13.9992 11.0566 14 10.2 14H9.8C8.94342 14 8.36113 13.9992 7.91104 13.9624C7.47262 13.9266 7.24842 13.8617 7.09202 13.782C6.71569 13.5903 6.40973 13.2843 6.21799 12.908C6.1383 12.7516 6.07337 12.5274 6.03755 12.089C6.00078 11.6389 6 11.0566 6 10.2V9.8C6 8.94342 6.00078 8.36113 6.03755 7.91104C6.07337 7.47262 6.1383 7.24842 6.21799 7.09202C6.40973 6.71569 6.71569 6.40973 7.09202 6.21799C7.24842 6.1383 7.47262 6.07337 7.91104 6.03755C8.36113 6.00078 8.94342 6 9.8 6Z" fill="white"/>
            <defs>
                <radialGradient id="paint0_radial_301_7807" cx="0" cy="0" r="1" gradientUnits="userSpaceOnUse" gradientTransform="translate(7.5 14.375) rotate(-55.3758) scale(15.9498)">
                    <stop stop-color="#B13589"/>
                    <stop offset="0.79309" stop-color="#C62F94"/>
                    <stop offset="1" stop-color="#8A3AC8"/>
                </radialGradient>
                <radialGradient id="paint1_radial_301_7807" cx="0" cy="0" r="1" gradientUnits="userSpaceOnUse" gradientTransform="translate(6.875 19.375) rotate(-65.1363) scale(14.1214)">
                    <stop stop-color="#E0E8B7"/>
                    <stop offset="0.444662" stop-color="#FB8A2E"/>
                    <stop offset="0.71474" stop-color="#E2425C"/>
                    <stop offset="1" stop-color="#E2425C" stop-opacity="0"/>
                </radialGradient>
                <radialGradient id="paint2_radial_301_7807" cx="0" cy="0" r="1" gradientUnits="userSpaceOnUse" gradientTransform="translate(0.312501 1.875) rotate(-8.1301) scale(24.3068 5.19897)">
                    <stop offset="0.156701" stop-color="#406ADC"/>
                    <stop offset="0.467799" stop-color="#6A45BE"/>
                    <stop offset="1" stop-color="#6A45BE" stop-opacity="0"/>
                </radialGradient>
            </defs>
        </svg>

    </symbol>
</svg>