<svg width="156" height="217" viewBox="0 0 156 217" fill="none" xmlns="http://www.w3.org/2000/svg">
<mask id="path-1-inside-1_14621_2" fill="white">
<path d="M63.4763 146.615C63.0833 141.739 62.6904 136.864 61.9046 131.988C59.94 121.931 54.4391 113.398 44.2232 106.999C33.6142 100.294 23.3983 93.2852 9.64609 91.152C7.68149 90.8472 5.32397 89.933 4.1452 88.714C2.57351 86.8856 0.215995 84.4476 0.608915 82.6191C1.00183 80.7907 4.1452 78.3527 6.89565 78.048C43.0444 72.8674 59.94 53.3638 69.763 28.3748C72.1205 22.2799 73.2993 15.5755 74.8709 9.17591C76.0497 7.0427 75.6568 4.9095 76.8355 3.08104C78.0143 1.55732 80.3718 -0.271145 81.9435 0.0335989C83.5152 0.0335989 85.4798 2.16681 86.6586 3.69053C87.4444 4.9095 87.0515 6.43322 87.0515 7.95694C86.6586 14.3566 86.2656 20.4514 85.8727 26.8511C85.4798 33.8602 84.694 40.8693 84.694 47.8784C84.301 59.4586 93.7311 66.4677 105.519 71.0389C112.984 73.7816 121.236 75.3053 130.273 74.3911C135.774 73.7816 141.274 75.0006 147.168 75.61C149.133 75.9148 151.097 76.2195 152.276 77.1338C153.848 78.6575 155.812 80.7907 155.812 82.3144C155.812 85.0571 152.276 85.3618 149.133 85.0571C144.025 84.7524 139.31 84.4476 134.202 83.8381C124.772 82.9239 116.128 84.7524 107.483 87.1903C103.554 88.4093 99.6249 90.8472 97.6603 93.5899C93.3382 98.7706 89.0161 103.951 87.0515 109.741C82.3364 123.15 79.1931 136.864 75.2639 150.272C74.478 153.015 74.478 155.758 72.9063 158.196C72.1205 159.719 69.3701 161.548 67.7984 161.548C66.2267 161.548 63.4763 159.415 63.4763 157.891C63.0833 154.234 63.4763 150.272 63.4763 146.615Z"/>
</mask>
<path d="M63.4763 146.615C63.0833 141.739 62.6904 136.864 61.9046 131.988C59.94 121.931 54.4391 113.398 44.2232 106.999C33.6142 100.294 23.3983 93.2852 9.64609 91.152C7.68149 90.8472 5.32397 89.933 4.1452 88.714C2.57351 86.8856 0.215995 84.4476 0.608915 82.6191C1.00183 80.7907 4.1452 78.3527 6.89565 78.048C43.0444 72.8674 59.94 53.3638 69.763 28.3748C72.1205 22.2799 73.2993 15.5755 74.8709 9.17591C76.0497 7.0427 75.6568 4.9095 76.8355 3.08104C78.0143 1.55732 80.3718 -0.271145 81.9435 0.0335989C83.5152 0.0335989 85.4798 2.16681 86.6586 3.69053C87.4444 4.9095 87.0515 6.43322 87.0515 7.95694C86.6586 14.3566 86.2656 20.4514 85.8727 26.8511C85.4798 33.8602 84.694 40.8693 84.694 47.8784C84.301 59.4586 93.7311 66.4677 105.519 71.0389C112.984 73.7816 121.236 75.3053 130.273 74.3911C135.774 73.7816 141.274 75.0006 147.168 75.61C149.133 75.9148 151.097 76.2195 152.276 77.1338C153.848 78.6575 155.812 80.7907 155.812 82.3144C155.812 85.0571 152.276 85.3618 149.133 85.0571C144.025 84.7524 139.31 84.4476 134.202 83.8381C124.772 82.9239 116.128 84.7524 107.483 87.1903C103.554 88.4093 99.6249 90.8472 97.6603 93.5899C93.3382 98.7706 89.0161 103.951 87.0515 109.741C82.3364 123.15 79.1931 136.864 75.2639 150.272C74.478 153.015 74.478 155.758 72.9063 158.196C72.1205 159.719 69.3701 161.548 67.7984 161.548C66.2267 161.548 63.4763 159.415 63.4763 157.891C63.0833 154.234 63.4763 150.272 63.4763 146.615Z" stroke="#81ADC8" stroke-width="28" mask="url(#path-1-inside-1_14621_2)"/>
<mask id="path-2-inside-2_14621_2" fill="white">
<path d="M120.596 191.279C120.446 189.416 120.295 187.554 119.995 185.691C119.245 181.85 117.144 178.591 113.241 176.146C109.189 173.585 105.287 170.908 100.034 170.093C99.2836 169.977 98.3831 169.628 97.9328 169.162C97.3325 168.464 96.432 167.532 96.582 166.834C96.7321 166.136 97.9328 165.204 98.9834 165.088C112.791 163.109 119.245 155.659 122.997 146.114C123.897 143.786 124.348 141.225 124.948 138.781C125.398 137.966 125.248 137.151 125.698 136.453C126.149 135.871 127.049 135.172 127.65 135.289C128.25 135.289 129 136.104 129.451 136.686C129.751 137.151 129.601 137.733 129.601 138.315C129.451 140.76 129.301 143.088 129.15 145.532C129 148.209 128.7 150.887 128.7 153.564C128.55 157.987 132.152 160.665 136.655 162.411C139.506 163.458 142.658 164.04 146.11 163.691C148.211 163.458 150.312 163.924 152.564 164.157C153.314 164.273 154.064 164.39 154.515 164.739C155.115 165.321 155.865 166.136 155.865 166.718C155.865 167.765 154.515 167.882 153.314 167.765C151.363 167.649 149.562 167.532 147.611 167.3C144.009 166.95 140.707 167.649 137.405 168.58C135.904 169.046 134.403 169.977 133.653 171.025C132.002 173.003 130.351 174.982 129.601 177.194C127.8 182.316 126.599 187.554 125.098 192.676C124.798 193.723 124.798 194.771 124.198 195.702C123.897 196.284 122.847 196.983 122.247 196.983C121.646 196.983 120.596 196.168 120.596 195.586C120.446 194.189 120.596 192.676 120.596 191.279Z"/>
</mask>
<path d="M120.596 191.279C120.446 189.416 120.295 187.554 119.995 185.691C119.245 181.85 117.144 178.591 113.241 176.146C109.189 173.585 105.287 170.908 100.034 170.093C99.2836 169.977 98.3831 169.628 97.9328 169.162C97.3325 168.464 96.432 167.532 96.582 166.834C96.7321 166.136 97.9328 165.204 98.9834 165.088C112.791 163.109 119.245 155.659 122.997 146.114C123.897 143.786 124.348 141.225 124.948 138.781C125.398 137.966 125.248 137.151 125.698 136.453C126.149 135.871 127.049 135.172 127.65 135.289C128.25 135.289 129 136.104 129.451 136.686C129.751 137.151 129.601 137.733 129.601 138.315C129.451 140.76 129.301 143.088 129.15 145.532C129 148.209 128.7 150.887 128.7 153.564C128.55 157.987 132.152 160.665 136.655 162.411C139.506 163.458 142.658 164.04 146.11 163.691C148.211 163.458 150.312 163.924 152.564 164.157C153.314 164.273 154.064 164.39 154.515 164.739C155.115 165.321 155.865 166.136 155.865 166.718C155.865 167.765 154.515 167.882 153.314 167.765C151.363 167.649 149.562 167.532 147.611 167.3C144.009 166.95 140.707 167.649 137.405 168.58C135.904 169.046 134.403 169.977 133.653 171.025C132.002 173.003 130.351 174.982 129.601 177.194C127.8 182.316 126.599 187.554 125.098 192.676C124.798 193.723 124.798 194.771 124.198 195.702C123.897 196.284 122.847 196.983 122.247 196.983C121.646 196.983 120.596 196.168 120.596 195.586C120.446 194.189 120.596 192.676 120.596 191.279Z" stroke="#CD4631" stroke-width="16" mask="url(#path-2-inside-2_14621_2)"/>
<mask id="path-3-inside-3_14621_2" fill="white">
<path d="M33.4171 212.552C33.3244 211.401 33.2316 210.25 33.0461 209.099C32.5823 206.725 31.2837 204.71 28.872 203.2C26.3674 201.617 23.9557 199.962 20.7092 199.459C20.2454 199.387 19.6888 199.171 19.4105 198.883C19.0395 198.451 18.4829 197.876 18.5757 197.444C18.6685 197.013 19.4105 196.437 20.0598 196.365C28.5937 195.142 32.5823 190.538 34.9013 184.639C35.4578 183.2 35.7361 181.617 36.1071 180.106C36.3854 179.603 36.2927 179.099 36.5709 178.667C36.8492 178.308 37.4058 177.876 37.7768 177.948C38.1478 177.948 38.6116 178.451 38.8899 178.811C39.0754 179.099 38.9827 179.459 38.9827 179.818C38.8899 181.329 38.7971 182.768 38.7044 184.279C38.6116 185.933 38.4261 187.588 38.4261 189.243C38.3334 191.977 40.5596 193.631 43.3423 194.71C45.1047 195.358 47.0527 195.718 49.1861 195.502C50.4848 195.358 51.7834 195.646 53.1748 195.79C53.6386 195.861 54.1023 195.933 54.3806 196.149C54.7517 196.509 55.2155 197.013 55.2155 197.372C55.2155 198.02 54.3806 198.092 53.6386 198.02C52.4327 197.948 51.3196 197.876 50.1137 197.732C47.8875 197.516 45.8468 197.948 43.8061 198.523C42.8785 198.811 41.9509 199.387 41.4872 200.034C40.4668 201.257 39.4465 202.48 38.9827 203.847C37.8696 207.013 37.1275 210.25 36.1999 213.415C36.0144 214.063 36.0144 214.71 35.6433 215.286C35.4578 215.646 34.8085 216.077 34.4375 216.077C34.0664 216.077 33.4171 215.574 33.4171 215.214C33.3244 214.351 33.4171 213.415 33.4171 212.552Z"/>
</mask>
<path d="M33.4171 212.552C33.3244 211.401 33.2316 210.25 33.0461 209.099C32.5823 206.725 31.2837 204.71 28.872 203.2C26.3674 201.617 23.9557 199.962 20.7092 199.459C20.2454 199.387 19.6888 199.171 19.4105 198.883C19.0395 198.451 18.4829 197.876 18.5757 197.444C18.6685 197.013 19.4105 196.437 20.0598 196.365C28.5937 195.142 32.5823 190.538 34.9013 184.639C35.4578 183.2 35.7361 181.617 36.1071 180.106C36.3854 179.603 36.2927 179.099 36.5709 178.667C36.8492 178.308 37.4058 177.876 37.7768 177.948C38.1478 177.948 38.6116 178.451 38.8899 178.811C39.0754 179.099 38.9827 179.459 38.9827 179.818C38.8899 181.329 38.7971 182.768 38.7044 184.279C38.6116 185.933 38.4261 187.588 38.4261 189.243C38.3334 191.977 40.5596 193.631 43.3423 194.71C45.1047 195.358 47.0527 195.718 49.1861 195.502C50.4848 195.358 51.7834 195.646 53.1748 195.79C53.6386 195.861 54.1023 195.933 54.3806 196.149C54.7517 196.509 55.2155 197.013 55.2155 197.372C55.2155 198.02 54.3806 198.092 53.6386 198.02C52.4327 197.948 51.3196 197.876 50.1137 197.732C47.8875 197.516 45.8468 197.948 43.8061 198.523C42.8785 198.811 41.9509 199.387 41.4872 200.034C40.4668 201.257 39.4465 202.48 38.9827 203.847C37.8696 207.013 37.1275 210.25 36.1999 213.415C36.0144 214.063 36.0144 214.71 35.6433 215.286C35.4578 215.646 34.8085 216.077 34.4375 216.077C34.0664 216.077 33.4171 215.574 33.4171 215.214C33.3244 214.351 33.4171 213.415 33.4171 212.552Z" stroke="black" stroke-width="12" mask="url(#path-3-inside-3_14621_2)"/>
</svg>
